<svg width="104" height="41" viewBox="0 0 104 41" fill="none" xmlns="http://www.w3.org/2000/svg">
<path d="M37.688 40.278C33.734 40.278 30.528 37.096 30.528 33.171C30.528 29.247 33.734 26.065 37.688 26.065C41.642 26.065 44.847 29.247 44.847 33.171C44.847 37.096 41.642 40.278 37.688 40.278Z" fill="#2D67AB"/>
<path d="M103.259 8.65701V30.901C103.258 32.224 102.728 33.491 101.785 34.426C100.843 35.361 99.565 35.885 98.233 35.885H5.02197C3.68997 35.885 2.41298 35.36 1.47098 34.426C0.528978 33.491 0.000976562 32.223 0.000976562 30.901V8.65701C0.000976562 7.33501 0.528978 6.06702 1.47098 5.13202C2.41198 4.19602 3.68897 3.67003 5.02197 3.66803H98.233C99.566 3.66803 100.844 4.19403 101.787 5.12903C102.73 6.06503 103.259 7.33401 103.259 8.65701Z" fill="#6298D9"/>
<path d="M80.009 8.65701V30.901C80.008 32.224 79.477 33.491 78.535 34.426C77.592 35.361 76.315 35.885 74.983 35.885H5.02103C3.68903 35.885 2.412 35.36 1.47 34.426C0.529001 33.491 0 32.223 0 30.901V8.65701C0 7.33501 0.529001 6.06702 1.47 5.13202C2.412 4.19602 3.68903 3.67003 5.02103 3.66803H74.983C76.316 3.66803 77.594 4.19403 78.537 5.12903C79.479 6.06503 80.009 7.33401 80.009 8.65701Z" fill="url(#paint0_linear_12_315)"/>
<path d="M70.334 22.966H7.36197C5.80797 22.966 4.54797 21.715 4.54797 20.173V10.6111C4.54797 9.06905 5.80797 7.81805 7.36197 7.81805H70.334C71.888 7.81805 73.148 9.06905 73.148 10.6111V20.173C73.148 21.715 71.888 22.966 70.334 22.966Z" fill="#6198D9"/>
<path d="M52.763 35.8911H29.535V7.81805H52.763V35.8911Z" fill="#3971B2"/>
<path d="M38.558 33.414H33.627C32.802 33.414 32.132 32.75 32.132 31.931V11.773C32.132 10.953 32.802 10.289 33.627 10.289H38.558C39.383 10.289 40.052 10.953 40.052 11.773V31.931C40.052 32.75 39.383 33.414 38.558 33.414Z" fill="#6198D9"/>
<path d="M86.19 40.278C82.236 40.278 79.03 37.096 79.03 33.171C79.03 29.247 82.236 26.065 86.19 26.065C90.144 26.065 93.349 29.247 93.349 33.171C93.349 37.096 90.144 40.278 86.19 40.278Z" fill="url(#paint1_linear_12_315)"/>
<path d="M48.767 33.414H43.836C43.011 33.414 42.341 32.75 42.341 31.931V11.773C42.341 10.953 43.011 10.289 43.836 10.289H48.767C49.592 10.289 50.261 10.953 50.261 11.773V31.931C50.261 32.75 49.592 33.414 48.767 33.414Z" fill="#6198D9"/>
<path d="M103.259 27.543V30.901C103.258 32.224 102.728 33.491 101.785 34.426C100.843 35.36 99.565 35.885 98.233 35.885H73.143V27.543H103.259Z" fill="url(#paint2_linear_12_315)"/>
<path d="M19.053 40.278C15.099 40.278 11.893 37.096 11.893 33.171C11.893 29.247 15.099 26.065 19.053 26.065C23.007 26.065 26.212 29.247 26.212 33.171C26.212 37.096 23.007 40.278 19.053 40.278Z" fill="#2D67AB"/>
<path d="M19.054 36.45C17.23 36.45 15.751 34.982 15.751 33.171C15.751 31.361 17.23 29.893 19.054 29.893C20.878 29.893 22.357 31.361 22.357 33.171C22.357 34.982 20.878 36.45 19.054 36.45Z" fill="#F6F6F6"/>
<path d="M67.717 40.278C63.763 40.278 60.558 37.096 60.558 33.171C60.558 29.247 63.763 26.065 67.717 26.065C71.671 26.065 74.876 29.247 74.876 33.171C74.876 37.096 71.671 40.278 67.717 40.278Z" fill="#2D67AB"/>
<path d="M67.72 36.45C65.896 36.45 64.417 34.982 64.417 33.171C64.417 31.361 65.896 29.893 67.72 29.893C69.544 29.893 71.023 31.361 71.023 33.171C71.023 34.982 69.544 36.45 67.72 36.45Z" fill="#F6F6F6"/>
<path d="M81.025 27.543H81.743V8.49902C81.736 7.22602 81.223 6.007 80.316 5.108C79.409 4.208 78.18 3.70001 76.897 3.69501H74.892V21.466C74.899 23.078 75.548 24.621 76.697 25.76C77.846 26.898 79.402 27.539 81.025 27.543Z" fill="#3971B3"/>
<path d="M98.793 9.38602H85.855C85.317 9.38602 84.88 8.89703 84.88 8.29303C84.88 7.69003 85.317 7.20001 85.855 7.20001H98.793C99.332 7.20001 99.768 7.69003 99.768 8.29303C99.768 8.89703 99.332 9.38602 98.793 9.38602Z" fill="#E3994B"/>
<path d="M73.324 11.55C73.324 9.48905 71.653 7.81805 69.591 7.81805H68.71V22.966H69.591C71.653 22.966 73.324 21.295 73.324 19.233V11.55Z" fill="#3971B2"/>
<path d="M4.54797 11.55C4.54797 9.48905 6.21898 7.81805 8.28098 7.81805H9.16199V22.966H8.28098C6.21898 22.966 4.54797 21.295 4.54797 19.233V11.55Z" fill="#3971B2"/>
<path d="M99.1935 32.762C98.2599 32.762 97.503 32.0052 97.503 31.0715C97.503 30.1379 98.2599 29.381 99.1935 29.381C100.127 29.381 100.884 30.1379 100.884 31.0715C100.884 32.0052 100.127 32.762 99.1935 32.762Z" fill="#0C478C"/>
<path d="M85.6115 32.762C84.6779 32.762 83.921 32.0052 83.921 31.0715C83.921 30.1379 84.6779 29.381 85.6115 29.381C86.5451 29.381 87.302 30.1379 87.302 31.0715C87.302 32.0052 86.5451 32.762 85.6115 32.762Z" fill="#0C478C"/>
<path d="M83.065 2.36401L84.285 3.66602H10.815L11.539 2.77103C12.957 1.01803 15.09 0 17.343 0H77.616C79.681 0 81.654 0.856014 83.065 2.36401Z" fill="url(#paint3_linear_12_315)"/>
<path d="M12.083 2.35004L10.841 3.69806L84.274 3.66205V3.59604L12.083 2.35004Z" fill="#6191C9"/>
<defs>
<linearGradient id="paint0_linear_12_315" x1="29.976" y1="2.53203" x2="31.036" y2="44.964" gradientUnits="userSpaceOnUse">
<stop stop-color="#CBF2FF"/>
<stop offset="1" stop-color="#9AC3F4"/>
</linearGradient>
<linearGradient id="paint1_linear_12_315" x1="86.924" y1="39.035" x2="87.046" y2="32.648" gradientUnits="userSpaceOnUse">
<stop stop-color="#0C478C"/>
<stop offset="1" stop-color="#0C478C" stop-opacity="0"/>
</linearGradient>
<linearGradient id="paint2_linear_12_315" x1="75.588" y1="31.714" x2="112.121" y2="30.906" gradientUnits="userSpaceOnUse">
<stop stop-color="#ABD4F9"/>
<stop offset="1" stop-color="white" stop-opacity="0"/>
</linearGradient>
<linearGradient id="paint3_linear_12_315" x1="42.872" y1="-0.470002" x2="43.101" y2="16.6031" gradientUnits="userSpaceOnUse">
<stop stop-color="#8CC0FD"/>
<stop offset="0.5" stop-color="#C1F0FF"/>
</linearGradient>
</defs>
</svg>
