<svg width="81" height="82" viewBox="0 0 81 82" fill="none" xmlns="http://www.w3.org/2000/svg">
<g clip-path="url(#clip0_28_8630)">
<path fill-rule="evenodd" clip-rule="evenodd" d="M17.3456 64.1527C16.3682 63.1697 15.4515 62.1283 14.6002 61.0342C14.476 60.879 14.3954 60.6934 14.3668 60.4966C14.3382 60.2998 14.3626 60.099 14.4375 59.9147C14.5123 59.7305 14.635 59.5696 14.7927 59.4486C14.9505 59.3275 15.1377 59.2508 15.335 59.2262C15.1381 59.2514 14.9513 59.3285 14.7939 59.4496C14.6365 59.5707 14.5141 59.7314 14.4392 59.9153C14.3643 60.0993 14.3388 60.3 14.3668 60.4966C14.3949 60.6932 14.4755 60.8786 14.5988 61.0342C15.4522 62.1306 16.3707 63.172 17.3456 64.1527ZM40.5231 71.9085C53.1288 71.9085 67.8679 62.2145 70.363 46.473C70.4063 46.2069 70.444 45.9407 70.4787 45.6717C68.3669 61.8862 53.3414 71.9085 40.5231 71.9085ZM63.4331 46.473H69.5515C67.0665 61.6981 52.7585 71.1057 40.5217 71.1057C31.8489 71.1057 22.6019 66.428 17.0129 59.1799C16.8629 58.9686 16.6718 58.7897 16.451 58.6541C16.2302 58.5185 15.9843 58.4288 15.728 58.3906C15.4717 58.3523 15.2103 58.3663 14.9595 58.4315C14.7087 58.4968 14.4737 58.612 14.2686 58.7704C14.0635 58.9287 13.8924 59.1269 13.7658 59.3529C13.6391 59.579 13.5594 59.8283 13.5315 60.086C13.5036 60.3436 13.528 60.6042 13.6033 60.8521C13.6786 61.1001 13.8032 61.3303 13.9696 61.5289C17.2206 65.7077 21.3761 69.0956 26.1239 71.4384C30.7525 73.7324 35.7297 74.9532 40.5231 74.9532C47.8464 74.9532 55.5197 72.098 61.5976 67.1425C68.0964 61.8486 72.2867 54.5311 73.441 46.473H80.2768L71.8557 34.2681L63.4331 46.473ZM63.6761 17.8193C64.6454 18.7964 65.5549 19.831 66.3997 20.9175C66.524 21.0728 66.6045 21.2584 66.6332 21.4552C66.6618 21.6519 66.6374 21.8528 66.5625 22.037C66.4877 22.2212 66.365 22.3822 66.2073 22.5032C66.0495 22.6242 65.8623 22.701 65.665 22.7256C65.6645 22.7256 65.6654 22.7256 65.665 22.7256C65.8618 22.7001 66.0498 22.6229 66.207 22.5017C66.3642 22.3805 66.4865 22.2198 66.5612 22.0359C66.6359 21.852 66.6613 21.6517 66.6332 21.4552C66.6045 21.2584 66.524 21.0728 66.3997 20.9175C65.5549 19.8315 64.6468 18.7974 63.6776 17.8207L63.6761 17.8193ZM62.1429 19.4566C56.376 13.6536 48.2254 10.0433 40.4783 10.0433C27.8727 10.0433 13.1336 19.7372 10.6385 35.4787C10.5951 35.7434 10.5575 36.011 10.5228 36.2801H10.5199C12.6331 20.0656 27.6572 10.0418 40.4754 10.0418C48.2225 10.0418 56.3745 13.6507 62.1429 19.4566ZM16.0409 36.2801L9.14576 46.272L16.038 36.2801H16.0409ZM17.5698 35.4787H11.4514C13.9334 20.2536 28.243 10.8461 40.4783 10.8461C49.1511 10.8461 58.3995 15.5224 63.9871 22.7719C64.138 22.9809 64.3293 23.1575 64.5498 23.2911C64.7703 23.4247 65.0153 23.5127 65.2704 23.5497C65.5256 23.5868 65.7855 23.5722 66.0349 23.5068C66.2843 23.4414 66.5179 23.3266 66.722 23.1691C66.9262 23.0116 67.0965 22.8147 67.2231 22.5901C67.3496 22.3655 67.4297 22.1178 67.4586 21.8616C67.4875 21.6054 67.4646 21.346 67.3913 21.0989C67.318 20.8517 67.1957 20.6218 67.0318 20.4229C63.7811 16.2435 59.6256 12.855 54.8775 10.5119C50.2489 8.21934 45.2703 7 40.4783 7C33.155 7 25.4817 9.8538 19.4009 14.8107C12.9036 20.1046 8.71328 27.4207 7.55758 35.4802H0.723206L9.14576 47.6851L17.5683 35.4802L17.5698 35.4787Z" fill="rgb(121, 44, 143)"/>
<path d="M20.1172 40.886C20.1172 52.2058 29.0784 61.4152 40.0908 61.4152C51.1048 61.4152 60.0645 52.2058 60.0645 40.886C60.0645 29.5676 51.1048 20.3567 40.0908 20.3567C29.0784 20.3567 20.1172 29.5662 20.1172 40.886ZM47.7536 30.516C47.7536 30.8168 47.6376 31.1052 47.4311 31.3179C47.2246 31.5306 46.9446 31.6501 46.6526 31.6501H42.2615C43.1361 32.6374 43.7143 33.8644 43.9265 35.1829H46.654C46.946 35.1829 47.226 35.3024 47.4325 35.5151C47.639 35.7278 47.755 36.0163 47.755 36.3171C47.755 36.6179 47.639 36.9064 47.4325 37.1191C47.226 37.3318 46.946 37.4513 46.654 37.4513H43.9265C43.6643 39.071 42.8532 40.5426 41.6372 41.6045C40.4213 42.6664 38.8792 43.2497 37.2852 43.2509H36.2978L43.6736 50.4291C43.7786 50.5316 43.863 50.6543 43.922 50.7903C43.981 50.9264 44.0134 51.0731 44.0174 51.222C44.0213 51.3709 43.9968 51.5192 43.9451 51.6584C43.8934 51.7976 43.8157 51.9249 43.7162 52.0331C43.6168 52.1413 43.4976 52.2282 43.3656 52.289C43.2335 52.3498 43.0911 52.3831 42.9466 52.3872C42.802 52.3913 42.658 52.366 42.5229 52.3128C42.3879 52.2595 42.2643 52.1794 42.1592 52.077L32.7733 42.9392C32.6148 42.7827 32.5052 42.5811 32.4585 42.3602C32.4118 42.1392 32.4301 41.9089 32.511 41.6987C32.592 41.4885 32.732 41.308 32.9131 41.1801C33.0942 41.0523 33.3082 40.983 33.5277 40.9811H37.2823C38.292 40.9795 39.2723 40.6313 40.0683 39.9915C40.8643 39.3517 41.4306 38.4568 41.6777 37.4483H33.5248C33.2328 37.4483 32.9528 37.3288 32.7463 37.1161C32.5399 36.9034 32.4239 36.615 32.4239 36.3141C32.4239 36.0133 32.5399 35.7249 32.7463 35.5122C32.9528 35.2995 33.2328 35.18 33.5248 35.18H41.6748C41.4282 34.1714 40.8619 33.2764 40.0658 32.6368C39.2697 31.9971 38.2891 31.6494 37.2795 31.6487H33.5248C33.2328 31.6487 32.9528 31.5292 32.7463 31.3165C32.5399 31.1038 32.4239 30.8153 32.4239 30.5145C32.4239 30.2137 32.5399 29.9252 32.7463 29.7125C32.9528 29.4998 33.2328 29.3803 33.5248 29.3803H46.6483C47.2564 29.3803 47.7493 29.8881 47.7493 30.5145L47.7536 30.516Z" fill="rgb(121, 44, 143)"/>
</g>
<defs>
<clipPath id="clip0_28_8630">
<rect x="0.723206" width="79.5536" height="81.9532" fill="white"/>
</clipPath>
</defs>
</svg>
