<svg width="81" height="81" viewBox="0 0 81 81" fill="none" xmlns="http://www.w3.org/2000/svg">
<path d="M14.5732 39.8587C6.53737 39.8587 0 46.3927 0 54.4302C0 58.492 2.22075 63.3993 6.6015 69.0153C9.73181 73.0248 12.825 75.9256 12.9532 76.0471L14.5732 77.5591L16.1932 76.0471C16.3232 75.9256 19.4164 73.0265 22.5467 69.0153C26.9274 63.3993 29.1482 58.492 29.1482 54.4302C29.1482 46.3927 22.6091 39.8553 14.5732 39.8553V39.8587ZM14.5732 59.1468C13.3235 59.145 12.1255 58.6476 11.2419 57.7638C10.3583 56.8799 9.8614 55.6817 9.86006 54.4319C9.8614 53.1822 10.3583 51.9839 11.2419 51.1001C12.1255 50.2162 13.3235 49.7188 14.5732 49.717C15.8233 49.7184 17.0218 50.2156 17.9057 51.0995C18.7896 51.9834 19.2868 53.1819 19.2881 54.4319C19.2863 55.6817 18.789 56.8797 17.9051 57.7633C17.0212 58.6468 15.823 59.1455 14.5732 59.1468ZM66.4268 5.05566C58.3926 5.05566 51.8535 11.593 51.8535 19.6306C51.8535 23.6924 54.0742 28.5997 58.455 34.2157C60.4033 36.7068 62.5259 39.0567 64.8067 41.2475L66.4268 42.7595L68.0468 41.2475C68.175 41.126 71.2699 38.2269 74.3985 34.2157C78.7793 28.5997 81 23.6924 81 19.6306C81 11.593 74.4643 5.05566 66.4268 5.05566ZM66.4268 24.3438C65.1773 24.342 63.9795 23.8449 63.096 22.9614C62.2125 22.0778 61.7153 20.8801 61.7136 19.6306C61.7149 18.3806 62.2121 17.1821 63.096 16.2982C63.9799 15.4142 65.1784 14.9171 66.4284 14.9157C67.6782 14.9175 68.8762 15.4149 69.7598 16.2988C70.6433 17.1826 71.1403 18.3808 71.1416 19.6306C71.1398 20.8804 70.6425 22.0784 69.7586 22.962C68.8747 23.8455 67.6765 24.3425 66.4268 24.3438Z" fill="rgb(121, 44, 143)"/>
<path d="M57.726 76.6867H24.0637L21.0212 74.4575L24.0637 71.9397H57.726C59.4038 71.938 61.0123 71.2707 62.1987 70.0843C63.385 68.8979 64.0523 67.2894 64.0541 65.6116C64.0523 63.9338 63.385 62.3253 62.1987 61.1389C61.0123 59.9526 59.4038 59.2853 57.726 59.2835H44.4538C41.5181 59.2804 38.7034 58.113 36.6272 56.0374C34.551 53.9618 33.3828 51.1475 33.3787 48.2118C33.3823 45.2758 34.5503 42.461 36.6266 40.3851C38.7029 38.3092 41.5178 37.1416 44.4538 37.1384H56.9345L60.0514 39.857L56.9345 41.8837H44.4538C42.776 41.8855 41.1675 42.5528 39.9811 43.7391C38.7947 44.9255 38.1275 46.534 38.1257 48.2118C38.1275 49.8896 38.7947 51.4981 39.9811 52.6845C41.1675 53.8709 42.776 54.5381 44.4538 54.5399H57.726C60.6619 54.5431 63.4766 55.7107 65.5526 57.7867C67.6286 59.8627 68.7962 62.6774 68.7994 65.6133C68.7958 68.549 67.628 71.3635 65.5521 73.4394C63.4762 75.5153 60.6617 76.6831 57.726 76.6867Z" fill="rgb(121, 44, 143)"/>
</svg>
