<?xml version="1.0" encoding="UTF-8"?>
<svg version="1.1" xmlns="http://www.w3.org/2000/svg" width="225" height="218">
<path d="M0 0 C4.36477924 4.03552123 6.96398863 7.09722941 8 13 C8.62229492 12.83395264 9.24458984 12.66790527 9.88574219 12.49682617 C23.84857592 8.8037207 37.65330946 5.71354715 52 4 C53.04542969 3.86851563 54.09085937 3.73703125 55.16796875 3.6015625 C83.87206607 0.60564825 113.45421282 4.82293322 141 13 C141.185625 12.175 141.37125 11.35 141.5625 10.5 C143.91325658 4.77641876 147.73166511 0.5626307 152.8125 -2.9375 C160.72043841 -5.57347947 167.43006899 -5.60875668 175 -2 C181.10538203 1.14482455 184.67990057 5.54175863 187 12 C187.72306486 17.41944017 187.68502806 22.79895918 187.64697266 28.25317383 C187.65375727 29.89019236 187.66266513 31.52720325 187.67352295 33.16419983 C187.69622818 37.59014333 187.68751508 42.01550104 187.67162752 46.44145417 C187.65891638 51.0883194 187.67072366 55.73513645 187.67855835 60.38200378 C187.6876425 68.18713321 187.67570232 75.99202573 187.65185547 83.79711914 C187.62467515 92.79667564 187.63344075 101.79566515 187.6609875 110.7952078 C187.68374707 118.54333245 187.68684445 126.2912873 187.67379415 134.03943461 C187.66603346 138.65752131 187.66486362 143.27534243 187.68147659 147.89341164 C187.69602117 152.23984331 187.6857194 156.58555147 187.65700531 160.93190575 C187.65044617 162.51845479 187.65220253 164.1050657 187.66331863 165.69158936 C187.74832729 179.06731063 185.21720657 189.97653802 175.54296875 199.80859375 C153.19927527 219.06329735 108.0169262 213.35800843 80.04272461 213.31567383 C76.73854892 213.311062 73.43474316 213.31791367 70.13061523 213.33618164 C52.1260931 213.43465831 34.2568336 213.12648569 16.30859375 211.60546875 C15.19257121 211.51152045 15.19257121 211.51152045 14.05400276 211.41567421 C-19.01109533 208.56446441 -19.01109533 208.56446441 -29.46875 197.1328125 C-34.68249938 189.87080444 -38.11047698 182.25626877 -38.16062927 173.32859802 C-38.16571709 172.64705361 -38.17080491 171.9655092 -38.17604691 171.26331192 C-38.19177149 168.97429004 -38.20029655 166.68529974 -38.20874023 164.39624023 C-38.21827891 162.7568695 -38.22817008 161.11750079 -38.23838806 159.47813416 C-38.26977895 154.08831167 -38.29004411 148.69847374 -38.30859375 143.30859375 C-38.31189107 142.39107747 -38.31518839 141.4735612 -38.31858563 140.5282414 C-38.34937258 131.87160429 -38.37607537 123.21496367 -38.39300442 114.55828762 C-38.41489589 103.49436022 -38.45683209 92.43091905 -38.52644199 81.36718601 C-38.57374603 73.58359692 -38.59794672 65.8001387 -38.6052013 58.01641041 C-38.61014891 53.37021195 -38.625144 48.72456144 -38.6649456 44.07851982 C-38.70193763 39.70264935 -38.71018086 35.32763691 -38.69693947 30.95163918 C-38.69699321 29.35130752 -38.70720648 27.75093664 -38.7286911 26.15074921 C-38.84746178 16.79967945 -38.29431756 9.39346234 -32 2 C-23.02840721 -6.55059688 -10.10153799 -7.17147728 0 0 Z M-26.8125 10 C-29.93835593 14.28688814 -30.12711776 17.14832573 -30.14044189 22.32972717 C-30.14341302 22.97451961 -30.14638414 23.61931206 -30.1494453 24.28364366 C-30.15812962 26.44830483 -30.15964034 28.61291067 -30.16113281 30.77758789 C-30.16576136 32.32828896 -30.17078607 33.87898889 -30.17617798 35.4296875 C-30.18930482 39.64698851 -30.19574808 43.86427359 -30.20018864 48.08159184 C-30.20312033 50.7184586 -30.20722544 53.35532102 -30.21169281 55.99218559 C-30.22537164 64.24791381 -30.23503507 72.5036321 -30.2388947 80.75937086 C-30.24336944 90.27805873 -30.26088852 99.79660256 -30.2898953 109.31524664 C-30.31155145 116.67846279 -30.32160116 124.04163855 -30.32293582 131.40488619 C-30.3239815 135.79939494 -30.32983812 140.19376837 -30.34775543 144.58824348 C-30.36430309 148.72755847 -30.36635934 152.86663743 -30.35761642 157.00597382 C-30.35684948 158.51919883 -30.3611432 160.03243688 -30.37107468 161.5456295 C-30.43811809 172.40405563 -29.99475213 182.43788448 -22.86328125 191.1796875 C-13.35512877 200.46857441 -1.51204752 201.33563123 11.03125 202.37768555 C13.20385716 202.55865646 15.37532981 202.75010769 17.546875 202.94335938 C36.25221503 204.57392682 54.91412418 205.20482465 73.6875 205.1875 C74.70414734 205.18756042 75.72079468 205.18762085 76.76824951 205.18768311 C94.91914229 205.17243353 112.91066704 204.46433781 131 203 C132.07459473 202.91991699 133.14918945 202.83983398 134.25634766 202.75732422 C137.15154848 202.54083913 140.0445463 202.30702658 142.9375 202.0625 C143.72979004 202.0001416 144.52208008 201.9377832 145.33837891 201.87353516 C155.69001726 200.89247552 165.82336144 197.98583473 172.82421875 189.890625 C179.54078371 180.45816089 179.29525897 170.73696068 179.2746582 159.59130859 C179.27901056 158.03337867 179.28419545 156.47545088 179.29014587 154.91752625 C179.30348672 150.70489724 179.30412034 146.4923582 179.30158257 142.2797122 C179.30051013 138.7581589 179.30540291 135.23662361 179.310188 131.71507418 C179.32126486 123.40801742 179.32172999 115.10100588 179.31567383 106.79394531 C179.30962652 98.23010448 179.32196839 89.66642763 179.3432439 81.10261476 C179.36086067 73.74020192 179.36686138 66.3778413 179.36360615 59.01540816 C179.36179424 54.62223 179.3644209 50.229169 179.37832069 45.83600998 C179.39089669 41.70729616 179.38895721 37.57883845 179.37590981 33.45012856 C179.37354447 31.93683727 179.37627722 30.42352796 179.38453293 28.91025734 C179.39500561 26.84119146 179.38689691 24.77298433 179.3742218 22.70394897 C179.37438954 21.54734961 179.37455729 20.39075024 179.37473011 19.1991024 C178.87335075 14.91878471 177.41533404 11.55170737 174.5 8.35546875 C169.58200427 4.52609186 166.24701186 3.38553982 160 4 C154.79377876 6.30220058 151.58330996 8.87202695 149 14 C148.54788131 17.07366096 148.54788131 17.07366096 148.60800171 20.43424988 C148.59136223 22.38389397 148.59136223 22.38389397 148.5743866 24.3729248 C148.57715521 25.80615289 148.58020098 27.23938045 148.58349609 28.67260742 C148.5761141 30.18732882 148.56740848 31.70204425 148.55747986 33.2167511 C148.53417171 37.3239274 148.52900836 41.43095253 148.52682066 45.53818679 C148.52115862 49.8347796 148.49788566 54.13127399 148.47622681 58.42781067 C148.43771007 66.56383754 148.41348604 74.69983623 148.39510214 82.83593112 C148.36168401 97.41871564 148.30403363 112.00141584 148.24111044 126.58409959 C148.21958535 131.70414164 148.204335 136.82415436 148.19427085 141.94423139 C148.1872685 145.12264251 148.1763909 148.30103255 148.16462898 151.47942924 C148.16005941 152.95730405 148.15722079 154.43518534 148.15620613 155.91306686 C148.15464137 157.92428678 148.14652457 159.93549846 148.13803101 161.94670105 C148.13547491 163.07401233 148.13291882 164.2013236 148.13028526 165.36279583 C148 168 148 168 147 170 C144.38989258 170.48657227 144.38989258 170.48657227 140.89453125 170.81640625 C139.61312256 170.94039795 138.33171387 171.06438965 137.01147461 171.19213867 C135.61189637 171.31649571 134.21223561 171.43992695 132.8125 171.5625 C132.10384796 171.62692291 131.39519592 171.69134583 130.66506958 171.75772095 C90.23274918 175.43338644 49.21233565 175.15411688 8.8125 171 C8.0999707 170.9292627 7.38744141 170.85852539 6.65332031 170.78564453 C4.76953125 170.5625 4.76953125 170.5625 2 170 C0.62312655 167.24625311 0.87531336 165.04340546 0.87542725 161.9601593 C0.87286423 160.67174637 0.87030121 159.38333344 0.86766052 158.05587769 C0.86973064 156.61968987 0.8718534 155.18350212 0.87402344 153.74731445 C0.87262909 152.24115445 0.87073005 150.73499485 0.86836243 149.22883606 C0.86385996 145.9799957 0.86200922 142.731168 0.86190033 139.4823246 C0.86076126 134.34285396 0.8479316 129.20345537 0.83233643 124.06401062 C0.82976357 123.19699581 0.82719072 122.329981 0.8245399 121.43669301 C0.81927308 119.66344001 0.8139876 117.89018707 0.80868387 116.11693418 C0.77356622 104.1493156 0.74702036 92.18178569 0.74951172 80.21411133 C0.75110114 72.14541773 0.73504355 64.076969 0.69880509 56.00835389 C0.68035334 51.73849409 0.67099495 47.46904304 0.68328094 43.19915199 C0.69473414 39.17948844 0.68297617 35.16055577 0.65364647 31.1409893 C0.64701624 29.66845139 0.64885508 28.19584635 0.65994453 26.72333527 C0.78586897 15.78729185 0.78586897 15.78729185 -5 7 C-12.68479943 1.82111343 -20.78812617 3.06074991 -26.8125 10 Z M9 22 C9 68.53 9 115.06 9 163 C30.81991578 165.18199158 51.82880159 166.20190061 73.6875 166.1875 C74.94858582 166.18789276 76.20967163 166.18828552 77.50897217 166.18869019 C98.4290248 166.18087638 119.25504958 165.96356435 140 163 C140 116.47 140 69.94 140 22 C125.31680243 17.84527692 125.31680243 17.84527692 110.5 14.75 C109.61570312 14.59015625 108.73140625 14.4303125 107.8203125 14.265625 C75.25490634 8.53564151 40.33113646 11.55628785 9 22 Z " fill="#E8E8E8" transform="translate(38,5)"/>
</svg>
