<svg width="25" height="26" viewBox="0 0 25 26" fill="none" xmlns="http://www.w3.org/2000/svg">
<path d="M9.28556 18.3997L2.26175 5.1102C1.78556 4.18914 2.1427 3.00493 2.97603 2.6102C3.80937 2.08388 4.76175 2.34704 5.23794 3.26809L11.7856 15.1102C12.0237 15.505 12.3808 15.7681 12.857 15.7681H16.0713C17.4999 15.7681 18.9285 16.2945 19.9999 17.2155L23.6904 20.2418C24.2856 20.7681 24.1666 21.8208 23.4523 22.2155C23.2142 22.3471 22.857 22.3471 22.4999 22.2155L17.857 19.7155C17.4999 19.4524 17.0237 19.3208 16.5475 19.3208H10.5951C10.1189 19.3208 9.52365 19.0576 9.28556 18.3997Z" fill="white" stroke="#6D6D6D" stroke-width="1.5" stroke-miterlimit="10" stroke-linecap="round" stroke-linejoin="round"/>
<path d="M9.16638 10.3734H16.0711" stroke="#6D6D6D" stroke-width="1.5" stroke-miterlimit="10" stroke-linecap="round" stroke-linejoin="round"/>
<path d="M11.3094 19.3206L9.99988 23.0049" stroke="#6D6D6D" stroke-width="1.5" stroke-miterlimit="10" stroke-linecap="round" stroke-linejoin="round"/>
<path d="M16.5475 19.3206L17.857 23.0049" stroke="#6D6D6D" stroke-width="1.5" stroke-miterlimit="10" stroke-linecap="round" stroke-linejoin="round"/>
</svg>
