<svg id="Layer_1" data-name="Layer 1" xmlns="http://www.w3.org/2000/svg" viewBox="0 0 69.86 60.79" fill="rgb(121, 44, 143)"><defs><style></style></defs><title>Untitled-3</title><path class="cls-1" d="M184.3,197.2c1.41,1.92,1.46,3.81.11,5.56a12.5,12.5,0,0,1,.9,2.56c.33,2.59-1.31,4.31-4.1,4.33-3.75,0-7.5,0-11.24,0H158.29c-.28,0-.57,0-.85,0a9.33,9.33,0,0,0-4.38.36c-1.8.67-4,.26-6.07.12a2.15,2.15,0,0,1-1.91-2.31q0-10.62,0-21.23a2.42,2.42,0,0,1,2.42-2.46c1.69-.06,3.39,0,5.09,0,1,0,1.61.5,2.39,1.75,5.7-1.49,10.14-4.3,12-10.36.83-2.66,1-5.38,1.64-8a23.47,23.47,0,1,1,26.71,28.67,22.45,22.45,0,0,1-8.72-.21C185.3,195.63,185.29,195.66,184.3,197.2ZM172,184.76h1.23c2.69,0,5.37,0,8.06,0s3.94,1.31,4.09,3.86a1,1,0,0,0,.84,1,17.89,17.89,0,0,0,7.63.64,17.45,17.45,0,0,0-.94-34.66c-7.14-.42-12.72,2.44-16.48,8.57A16.67,16.67,0,0,0,174,174.34a19.32,19.32,0,0,1-.37,5.14A47.1,47.1,0,0,1,172,184.76Zm-2.77,23h6.26c2.05,0,4.11,0,6.16,0a1.77,1.77,0,0,0,1.94-1.8,1.82,1.82,0,0,0-1.74-2.1,8.93,8.93,0,0,0-1.37-.09H170.7c-.61,0-1.22,0-1.25-.8s.62-.92,1.27-.92h5.94c1.7,0,3.4,0,5.09-.07a1.76,1.76,0,0,0,1.81-2c0-1.31-.81-1.93-2.5-1.95-3.36,0-6.72,0-10.08,0a1.93,1.93,0,0,1-.84-.05c-.27-.14-.65-.45-.64-.68a1.23,1.23,0,0,1,.53-.88,2.34,2.34,0,0,1,1-.11c3.57,0,7.14,0,10.71-.06a1.71,1.71,0,0,0,1.78-1.82c.05-1.44-.71-2.08-2.65-2.1-3.26,0-6.51,0-9.77,0-.28,0-.61.09-.83,0a5,5,0,0,1-.87-.74c.28-.31.5-.71.85-.88a2.91,2.91,0,0,1,1.15,0c3.46,0,6.93,0,10.4-.09a1.71,1.71,0,0,0,1.72-1.77c.09-1.39-.74-2.16-2.38-2.17-3.46,0-6.93,0-10.4,0-1.37,0-1.59-.45-1.06-1.71a40.55,40.55,0,0,0,2.19-5.82,13.58,13.58,0,0,0,.08-4.59,2.12,2.12,0,0,0-1.37-1.35c-.79-.21-1.2.58-1.45,1.26-.18.5-.3,1-.45,1.53a14.85,14.85,0,0,1-9.16,10.29c-1.24.49-2.49,1-3.77,1.4a1,1,0,0,0-.87,1.17c0,5.52,0,11,0,16.56,0,1.87.62,2.47,2.48,2.47ZM172,171.47A19.63,19.63,0,0,1,179.21,158,18.62,18.62,0,0,1,194,153.81a19.31,19.31,0,0,1,16.82,18.68,18.17,18.17,0,0,1-4.25,12.57c-6,7.1-13.53,8.75-22.43,6.09a9.69,9.69,0,0,1,.91,1.64,1.56,1.56,0,0,0,1.33,1.16,20.86,20.86,0,0,0,9,.27,21.63,21.63,0,0,0,17.25-25,21.4,21.4,0,0,0-23.52-17.57c-9.16,1-15.28,6.33-18.27,15.09a36.78,36.78,0,0,0-1,4.39Z" transform="translate(-145.07 -149.61)"/><path class="cls-1" d="M195.68,178.26A4.17,4.17,0,0,0,192,174a19.76,19.76,0,0,1-2.2-.33,6.12,6.12,0,0,1-.37-11.73,1.3,1.3,0,0,0,1.07-1.6,3,3,0,0,1,0-1.26c.12-.34.47-.8.75-.83a1.13,1.13,0,0,1,.91.63,5.26,5.26,0,0,1,.15,1.78,1.05,1.05,0,0,0,.88,1.2,6.33,6.33,0,0,1,4.36,5,1.85,1.85,0,0,1-.1,1.12,1.21,1.21,0,0,1-.85.62,1.24,1.24,0,0,1-.79-.69c-.21-.51-.2-1.12-.38-1.64a4.31,4.31,0,0,0-4.71-2.8,4.42,4.42,0,0,0-3.66,4.34A4.24,4.24,0,0,0,191,172a6.71,6.71,0,0,1,5.53,2.85,6.09,6.09,0,0,1-3.21,9.23c-.78.27-1.09.61-1,1.42a3.87,3.87,0,0,1-.12,1.56c-.12.32-.65.75-.88.69s-.83-.6-.79-.88c.24-1.75-.4-2.67-2.11-3.32s-2.7-2.41-3.16-4.28c-.06-.27-.15-.63,0-.82a7.71,7.71,0,0,1,1-1.08c.29.34.76.65.83,1a4.46,4.46,0,0,0,3.18,4A4.22,4.22,0,0,0,195.68,178.26Z" transform="translate(-145.07 -149.61)"/></svg>