<svg id="Layer_1" data-name="Layer 1" xmlns="http://www.w3.org/2000/svg" viewBox="0 0 64.98 64.83"><defs><style>.cls-1{fill:rgb(121, 44, 143)}</style></defs><title>Sarthi bus 24-7 icon</title><path class="cls-1" d="M147.51,170.07a6.72,6.72,0,0,1,1.07-1.73,18,18,0,0,1,7.19-3.92,2.5,2.5,0,0,1,3.37,1.76q1.67,4.42,3.31,8.86a2.66,2.66,0,0,1-.44,2.88c-.86,1-1.69,2-2.45,3.11a1.68,1.68,0,0,0-.19,1.34A43.25,43.25,0,0,0,169,196.75a1.33,1.33,0,0,0,1.56.38c1.22-.4,2.47-.7,3.69-1.08a2.71,2.71,0,0,1,2.84.64c2.31,2.15,4.67,4.25,7,6.39,1.39,1.28,1.43,2.48.26,3.94a20,20,0,0,1-6.07,5,2.57,2.57,0,0,1-2.7,0c-14.5-7.94-23.58-20-27-36.15C148.1,174.05,147.87,172.19,147.51,170.07Z" transform="translate(-147.51 -147.58)"/><path class="cls-1" d="M204.64,203.7c-.3-2.57-.57-4.89-.85-7.22a21.2,21.2,0,0,1-.29-2.62,2.87,2.87,0,0,1,.55-1.69,25.08,25.08,0,0,0,5.77-18.77,25.38,25.38,0,0,0-22.08-23c-10.17-1.18-18.34,2.42-24.45,10.65-.09.12-.18.23-.26.35-.49.71-1.12,1-1.87.49A1.2,1.2,0,0,1,161,160a50.86,50.86,0,0,1,5-5.57,27,27,0,0,1,19.25-6.82,28.26,28.26,0,0,1,21.35,45.57,2.49,2.49,0,0,0-.39,1.61c.38,3.42.86,6.84,1.23,10.26a2.16,2.16,0,0,1-.53,1.72,2.22,2.22,0,0,1-1.79-.1c-3.17-1.38-6.28-2.87-9.45-4.24a3,3,0,0,0-1.75-.08c-1.17.26-2.31.68-3.48,1-.85.23-1.6,0-1.81-.92s.47-1.37,1.27-1.6a17.78,17.78,0,0,0,2.94-.85,4.25,4.25,0,0,1,4.16.19C199.39,201.38,201.92,202.46,204.64,203.7Z" transform="translate(-147.51 -147.58)"/><path class="cls-1" d="M184.35,194.17c-10.13.21-18.4-8.38-18.49-18.22a18.43,18.43,0,1,1,36.85-.14A18.35,18.35,0,0,1,184.35,194.17Zm0-34.24a15.89,15.89,0,1,0,15.86,16.16A15.94,15.94,0,0,0,184.31,159.93Z" transform="translate(-147.51 -147.58)"/><path class="cls-1" d="M185.58,169.64v3.09c0,1.28.49,1.76,1.77,1.76h6.29c1.11,0,1.67.45,1.65,1.31,0,1.1-.8,1.28-1.68,1.29-2.09,0-4.19,0-6.29,0a2.14,2.14,0,0,0-1.22.48,2.56,2.56,0,0,1-3.62-3.62,2.14,2.14,0,0,0,.48-1.23c0-2.06,0-4.12,0-6.18,0-1.24.42-1.79,1.29-1.79s1.3.56,1.31,1.77C185.59,167.58,185.58,168.61,185.58,169.64Z" transform="translate(-147.51 -147.58)"/></svg>