<svg width="81" height="81" viewBox="0 0 81 81" fill="none" xmlns="http://www.w3.org/2000/svg">
<g clip-path="url(#clip0_28_8623)">
<path d="M25.3368 76.1795C22.8438 76.0139 15.8616 75.0149 14.8662 74.6819V79.5023C14.8662 80.3339 15.5322 80.9999 16.362 80.9999H24.0084C26.1684 80.9999 25.1712 77.6753 25.3368 76.1795ZM54.2574 79.3367C54.2574 80.1665 54.9234 80.8325 55.7532 80.8325H63.3996C64.2312 80.8325 64.8954 80.1665 64.8954 79.3367V74.6819C63.9 75.0149 55.5894 75.8465 54.4248 76.0121V79.3367H54.2574ZM78.0282 14.1299H77.1966V9.80634C77.1966 8.80914 76.5306 8.14314 75.5352 8.14314H70.8804V11.4677H73.872V14.1299H73.0422C72.8453 14.129 72.6501 14.1671 72.468 14.242C72.2858 14.3169 72.1204 14.4272 71.9811 14.5665C71.8419 14.7057 71.7316 14.8712 71.6567 15.0533C71.5817 15.2354 71.5436 15.4306 71.5446 15.6275V28.4255C71.5446 29.2571 72.2106 29.9231 73.0422 29.9231H78.0282C78.8598 29.9231 79.524 29.2571 79.524 28.4255V15.6275C79.5249 15.4308 79.4869 15.2357 79.4121 15.0537C79.3373 14.8717 79.2272 14.7063 79.0881 14.5671C78.9491 14.4279 78.7838 14.3175 78.6019 14.2425C78.42 14.1675 78.225 14.1292 78.0282 14.1299ZM2.39939 9.80814V14.1281H1.56599C1.36921 14.1274 1.17423 14.1657 0.992313 14.2407C0.810394 14.3157 0.645134 14.4261 0.50607 14.5653C0.367006 14.7045 0.256891 14.8699 0.182079 15.0519C0.107268 15.2339 0.0692407 15.429 0.0701926 15.6257V28.4237C0.0701926 29.2553 0.736193 29.9213 1.56599 29.9213H6.55199C7.38359 29.9213 8.04959 29.2553 8.04959 28.4237V15.6257C8.05055 15.4288 8.01246 15.2336 7.93754 15.0515C7.86261 14.8694 7.75234 14.7039 7.61308 14.5647C7.47383 14.4254 7.30835 14.3151 7.12623 14.2402C6.9441 14.1653 6.74893 14.1272 6.55199 14.1281H5.72399V11.4695H8.71199V8.14494H4.06079C3.62029 8.14637 3.19826 8.32211 2.88695 8.63377C2.57563 8.94542 2.40034 9.36764 2.39939 9.80814ZM62.4006 -5.93691e-05H17.19C16.2922 -0.010188 15.4015 0.159165 14.5701 0.498054C13.7388 0.836943 12.9835 1.33854 12.3486 1.97338C11.7138 2.60822 11.2122 3.36351 10.8733 4.19489C10.5344 5.02628 10.3651 5.917 10.3752 6.81474V56.8439C29.988 60.5015 49.6008 61.0001 69.2172 56.8439V6.81474C69.2118 2.99154 66.2238 -5.93691e-05 62.4006 -5.93691e-05Z" fill="rgb(121, 44, 143)"/>
<path d="M10.377 59.8789V66.6919C10.377 70.5151 13.5342 73.5067 17.19 73.5067C31.1526 75.8341 46.278 75.6667 62.2332 73.5067C66.0564 73.5067 69.048 70.3477 69.048 66.6919V59.8789C49.7682 63.8677 30.1554 63.5347 10.377 59.8789ZM17.6904 70.5169C17.2971 70.5186 16.9073 70.4423 16.5436 70.2926C16.1799 70.1428 15.8494 69.9225 15.5713 69.6444C15.2932 69.3663 15.0729 69.0358 14.9231 68.6721C14.7734 68.3084 14.6971 67.9186 14.6988 67.5253C14.6988 65.8621 16.029 64.5337 17.6904 64.5337C19.3518 64.5337 20.682 65.8639 20.682 67.5253C20.682 69.1867 19.3518 70.5169 17.6904 70.5169ZM61.7364 64.5337C63.3996 64.5337 64.728 65.8639 64.728 67.5253C64.728 69.1867 63.3996 70.5169 61.7364 70.5169C61.3431 70.5186 60.9533 70.4423 60.5896 70.2926C60.2259 70.1428 59.8954 69.9225 59.6173 69.6444C59.3392 69.3663 59.1189 69.0358 58.9691 68.6721C58.8194 68.3084 58.7431 67.9186 58.7448 67.5253C58.7448 65.8621 60.0768 64.5337 61.7364 64.5337Z" fill="rgb(121, 44, 143)"/>
</g>
<defs>
<clipPath id="clip0_28_8623">
<rect width="81" height="81" fill="white"/>
</clipPath>
</defs>
</svg>
