<svg width="25" height="26" viewBox="0 0 25 26" fill="none" xmlns="http://www.w3.org/2000/svg">
<g clip-path="url(#clip0_62_349)">
<path d="M1.3158 6.55128L10.3947 20.2417C10.7895 20.8369 11.4474 21.1941 12.2368 21.1941H17.2369" stroke="#6D6D6D" stroke-width="1.5" stroke-miterlimit="10" stroke-linecap="round" stroke-linejoin="round"/>
<path d="M20.1315 11.6702H16.5789C16.0526 11.6702 15.5263 11.4321 15.2631 10.9559L14.3421 9.64642C13.5526 8.575 11.9736 8.21785 10.6579 8.81309C9.21049 9.52738 8.5526 11.194 9.47366 12.5036L11.7105 15.8369C12.2368 16.6703 13.1579 17.1465 14.2105 17.1465H20.2631C21.9736 17.1465 23.2894 18.3369 23.2894 19.8846V23.456" stroke="#6D6D6D" stroke-width="1.5" stroke-miterlimit="10" stroke-linecap="round" stroke-linejoin="round"/>
<path d="M7.76305 6.19408C9.21643 6.19408 10.3946 5.12809 10.3946 3.81313C10.3946 2.49816 9.21643 1.43217 7.76305 1.43217C6.30967 1.43217 5.13147 2.49816 5.13147 3.81313C5.13147 5.12809 6.30967 6.19408 7.76305 6.19408Z" stroke="#6D6D6D" stroke-width="1.5" stroke-miterlimit="10" stroke-linecap="round" stroke-linejoin="round"/>
</g>
<defs>
<clipPath id="clip0_62_349">
<rect width="25" height="25" fill="white" transform="translate(0 0.241699)"/>
</clipPath>
</defs>
</svg>
