<svg width="25" height="26" viewBox="0 0 25 26" fill="none" xmlns="http://www.w3.org/2000/svg">
<path d="M5.0599 17.1272C6.38558 17.1272 7.46025 16.1499 7.46025 14.9442C7.46025 13.7386 6.38558 12.7612 5.0599 12.7612C3.73422 12.7612 2.65955 13.7386 2.65955 14.9442C2.65955 16.1499 3.73422 17.1272 5.0599 17.1272Z" fill="#6D6D6D" stroke="#A4A4A5" stroke-width="0.6"/>
<path fill-rule="evenodd" clip-rule="evenodd" d="M0.476074 10.1094V18.8898C0.476074 19.1215 0.664646 19.3089 0.895125 19.3089H23.6284C23.7396 19.3089 23.8462 19.2647 23.9248 19.1861C24.0033 19.1075 24.0475 19.0009 24.0475 18.8898V16.64C24.0475 16.5289 24.0033 16.4223 23.9248 16.3437C23.8462 16.2651 23.7396 16.2209 23.6284 16.2209H3.48274C3.4276 16.2209 3.373 16.2101 3.32208 16.1889C3.27115 16.1678 3.22489 16.1369 3.18597 16.0978C3.14703 16.0587 3.1162 16.0124 3.09522 15.9614C3.07423 15.9104 3.06352 15.8558 3.06369 15.8006V9.68906C3.06369 9.63393 3.05281 9.57933 3.03167 9.5284C3.01053 9.47747 2.97954 9.43122 2.94049 9.39229C2.90144 9.35336 2.85509 9.32252 2.8041 9.30154C2.75311 9.28055 2.69848 9.26985 2.64333 9.27002H1.31679C1.09404 9.27002 0.8804 9.35841 0.722776 9.5158C0.565149 9.67318 0.476421 9.88668 0.476074 10.1094Z" fill="#6D6D6D" stroke="white" stroke-width="0.6"/>
<path fill-rule="evenodd" clip-rule="evenodd" d="M8.93563 12.5268L6.65969 15.5386C6.60707 15.6081 6.58003 15.6936 6.58313 15.7807C6.58623 15.8678 6.61928 15.9511 6.67672 16.0166L10.6105 20.4939C10.7415 20.6419 10.9641 20.6641 11.1212 20.5463L16.6514 16.3846C16.717 16.3352 16.797 16.3085 16.8792 16.3086H22.7983C23.0078 16.3086 23.1767 16.1385 23.1767 15.9302V14.4688C23.1767 14.3933 23.1541 14.3195 23.1119 14.257C23.0696 14.1945 23.0097 14.146 22.9397 14.1178C21.219 13.4251 19.2416 12.934 17.0089 12.646C14.7198 12.3486 12.1244 12.2596 9.22246 12.3761C9.16646 12.3785 9.11171 12.3932 9.06213 12.4192C9.01254 12.4453 8.96929 12.482 8.93563 12.5268Z" fill="#6D6D6D" stroke="white" stroke-width="0.6"/>
<path d="M7.46008 8.45216L9.38112 7.96109L8.15937 10.5801L10.0791 10.0891M11.826 5.12335L14.3861 4.46859L12.7571 7.96109L15.3172 7.30633" fill="#6D6D6D"/>
<path d="M7.46008 8.45216L9.38112 7.96109L8.15937 10.5801L10.0791 10.0891M11.826 5.12335L14.3861 4.46859L12.7571 7.96109L15.3172 7.30633" stroke="#6D6D6D" stroke-width="0.6" stroke-linecap="round" stroke-linejoin="round"/>
</svg>
