<svg width="81" height="81" viewBox="0 0 81 81" fill="none" xmlns="http://www.w3.org/2000/svg">
<path d="M78.2158 51.4937C78.5748 51.4694 78.911 51.3092 79.1559 51.0457C79.4009 50.7821 79.5361 50.4351 79.5341 50.0754V46.4034C79.5324 44.1476 78.6357 41.9848 77.0408 40.3896C75.4459 38.7944 73.2832 37.8973 71.0275 37.8952H60.0798C60.0639 39.2261 60.0877 41.8658 60.0798 43.184C60.0757 43.5238 59.9497 43.8508 59.7248 44.1056C59.4999 44.3603 59.1909 44.5259 58.8543 44.572C58.5176 44.6182 58.1755 44.542 57.8903 44.3572C57.6051 44.1724 57.3958 43.8913 57.3004 43.5652C57.1511 42.0834 57.2892 39.3977 57.2432 37.8952C57.2432 37.8952 12.4391 37.8523 10.4903 37.8952C5.13794 37.3314 0.206472 40.6206 0.12706 46.4034V50.0468C0.12706 50.8282 0.762354 51.4635 1.54377 51.4651C3.12944 51.4845 4.64389 52.1266 5.76031 53.2528C6.87673 54.379 7.50561 55.899 7.51124 57.4848C7.51687 59.0706 6.89879 60.595 5.79039 61.7291C4.68199 62.8632 3.17214 63.5161 1.58665 63.5468H1.54535C1.16946 63.5476 0.809196 63.6973 0.543395 63.9631C0.277595 64.2289 0.127899 64.5892 0.12706 64.9651V68.6085C0.128322 70.8647 1.02507 73.0283 2.62034 74.6238C4.21562 76.2194 6.37897 77.1166 8.63524 77.1182H57.2448C57.2448 77.1182 57.1606 71.6865 57.3162 71.4451C57.4037 71.156 57.5819 70.9027 57.8245 70.7227C58.067 70.5428 58.361 70.4456 58.6631 70.4456C58.9651 70.4456 59.2591 70.5428 59.5016 70.7227C59.7442 70.9027 59.9224 71.156 60.0099 71.4451C60.1814 71.8453 60.0813 77.1182 60.0813 77.1182H71.0291C73.2853 77.1166 75.4487 76.2194 77.0439 74.6238C78.6392 73.0283 79.536 70.8647 79.5372 68.6085V64.9365C79.537 64.5774 79.401 64.2316 79.1565 63.9686C78.912 63.7055 78.5771 63.5446 78.219 63.5182C70.7956 62.8877 70.8242 52.1258 78.219 51.4937H78.2158ZM58.6615 48.7031C59.0361 48.7019 59.3959 48.8494 59.6618 49.1132C59.9278 49.3771 60.0781 49.7357 60.0798 50.1103V53.9792C60.0798 54.3554 59.9303 54.7161 59.6644 54.9821C59.3984 55.2481 59.0376 55.3975 58.6615 55.3975C58.2853 55.3975 57.9246 55.2481 57.6586 54.9821C57.3926 54.7161 57.2432 54.3554 57.2432 53.9792V50.1214C57.2419 49.7468 57.3894 49.387 57.6533 49.1211C57.9171 48.8551 58.2757 48.7048 58.6504 48.7031H58.6615ZM58.6615 66.2452C58.2856 66.2443 57.9253 66.0947 57.6595 65.8288C57.3937 65.563 57.244 65.2028 57.2432 64.8269V60.9548C57.2432 60.5786 57.3926 60.2179 57.6586 59.9519C57.9246 59.6859 58.2853 59.5365 58.6615 59.5365C59.0376 59.5365 59.3984 59.6859 59.6644 59.9519C59.9303 60.2179 60.0798 60.5786 60.0798 60.9548V64.8269C60.0789 65.2028 59.9292 65.563 59.6634 65.8288C59.3976 66.0947 59.0374 66.2443 58.6615 66.2452Z" fill="rgb(121, 44, 143)"/>
<path d="M25.6214 39.1103H34.9189L33.0004 57.2559C32.9631 57.6226 33.003 57.9929 33.1177 58.3432C33.2324 58.6934 33.4192 59.0157 33.6662 59.2893C33.9131 59.5629 34.2146 59.7816 34.5513 59.9315C34.888 60.0813 35.2524 60.1589 35.6209 60.1592C36.4468 60.1592 37.233 59.7622 37.7555 59.0633L56.1425 32.7939C56.4339 32.4027 56.611 31.9382 56.654 31.4523C56.697 30.9663 56.6043 30.478 56.3861 30.0416C56.1679 29.6053 55.8329 29.2381 55.4184 28.9809C55.0038 28.7237 54.526 28.5867 54.0381 28.5851H42.66L44.5532 12.582C44.5595 12.5201 44.5643 12.3327 44.5643 12.2723C44.5643 11.5749 44.2875 10.906 43.7946 10.4126C43.3018 9.91911 42.6332 9.64147 41.9358 9.64063C41.1115 9.64062 40.3237 10.0377 39.7853 10.7587L23.517 34.8999C23.2261 35.2914 23.0495 35.756 23.0069 36.2418C22.9643 36.7277 23.0572 37.2159 23.2755 37.6521C23.4938 38.0883 23.8287 38.4553 24.2432 38.7125C24.6576 38.9697 25.1353 39.1068 25.623 39.1087L25.6214 39.1103Z" fill="rgb(121, 44, 143)"/>
<path fill-rule="evenodd" clip-rule="evenodd" d="M37.7555 59.0601C37.233 59.7589 36.4468 60.1559 35.6209 60.1559C35.2524 60.1556 34.888 60.078 34.5513 59.9282C34.2146 59.7783 33.9131 59.5596 33.6662 59.286C33.4192 59.0124 33.2324 58.6901 33.1177 58.3399C33.003 57.9897 32.9631 57.6193 33.0004 57.2526L34.9189 39.107H25.623C25.1353 39.1051 24.6576 38.968 24.2432 38.7108C23.8287 38.4537 23.4938 38.0866 23.2755 37.6504C23.0572 37.2142 22.9643 36.726 23.0069 36.2401C23.0495 35.7543 23.2261 35.2897 23.517 34.8982L39.7853 10.757C40.3253 10.0344 41.1115 9.63893 41.9374 9.63893C43.3858 9.63893 44.5675 10.819 44.5643 12.269C44.5643 12.3294 44.5595 12.5168 44.5548 12.5788L42.66 28.5818H54.0397C54.5278 28.5832 55.006 28.7202 55.4208 28.9774C55.8356 29.2346 56.1708 29.6021 56.3891 30.0387C56.6073 30.4753 56.7 30.964 56.6567 31.4502C56.6134 31.9364 56.436 32.401 56.1441 32.7922L37.7555 59.0601ZM58.3025 34.3455L39.9108 60.6165L39.8869 60.6483C39.3944 61.3174 38.752 61.8618 38.0112 62.238C37.2704 62.6142 36.4518 62.8117 35.6209 62.8146C34.9082 62.8144 34.2028 62.6701 33.5471 62.3906C32.8915 62.1111 32.299 61.702 31.8053 61.188C31.3115 60.6739 30.9267 60.0654 30.6738 59.399C30.4209 58.7326 30.3053 58.022 30.3337 57.3098V57.3066C30.3337 57.2812 30.3385 57.1319 30.3575 56.9572L31.9648 41.7658H25.623C24.648 41.7645 23.6923 41.4939 22.8613 40.984C22.0304 40.4741 21.3563 39.7445 20.9136 38.8759C20.4709 38.0072 20.2767 37.0331 20.3524 36.0611C20.4281 35.0891 20.7708 34.1568 21.3427 33.3672L37.6158 9.21805L37.6539 9.16722C38.6704 7.80611 40.23 6.98022 41.9374 6.98022C42.6321 6.98064 43.32 7.1179 43.9617 7.38415C44.6034 7.6504 45.1863 8.04044 45.6773 8.532C46.1683 9.02355 46.5576 9.607 46.8231 10.249C47.0886 10.891 47.225 11.5791 47.2246 12.2738V12.269M47.2246 12.2738C47.2246 12.3564 47.2198 12.6439 47.2008 12.8345L47.1976 12.863L45.6522 25.9231H54.0381C55.0157 25.9241 55.9739 26.1959 56.8066 26.7081C57.6392 27.2204 58.3137 27.9533 58.7553 28.8255C59.1969 29.6977 59.3884 30.6751 59.3084 31.6494C59.2285 32.6238 58.8804 33.557 58.3025 34.3455" fill="white"/>
</svg>
